**ABCDEFGHIJKLMNOPQRSTUVWXYZabcdefghijklmnopqrstuvwxyz**************************
**PARASOLID !"#$%&'()*+,-./:;<=>?@[\]^_`{|}~0123456789**************************
**PART1;
MC=AMD64;
MC_MODEL=AMD64 Family 21 Model 101 Stepping 1, AuthenticAMD;
MC_ID=unknown;
OS=Windows_NT;
OS_RELEASE=unknown;
FRU=Parasolid Version 31.1, build 290,  3- 9-2020;
APPL=SOLIDWORKS 2020-2020128;
SITE=;
USER=unknown;
FORMAT=text;
GUISE=transmit;
KEY=makeProjectedPlanarWire;
FILE=makeProjectedPlanarWire.x_t;
DATE=Sat Jul 16 21:04:45 2022;
**PART2;
SCH=SCH_3101290_31100;
USFLD_SIZE=0;
**PART3;
**END_OF_HEADER*****************************************************************
T51 : TRANSMIT FILE created by modeller version 310129023 SCH_3101290_31100_1300
6222 0 12 34 CCCCCCI4 mesh1006 0 I8 polyline1008 0 CCCCCCCDI5 owner1040 0 CCCCCC
I13 boundary_mesh1006 0 I17 boundary_polyline1008 0 CCCA16 index_map_offset0 0 1
 dA9 index_map82 0 A17 node_id_index_map82 0 A20 schema_embedding_map82 0 A5 chi
ld12 0 A14 lowest_node_id0 0 1 dA16 mesh_offset_data206 0 Z1 58 2 3 0 0 0 0 0 0
 1e3 1e-8 0 4 0 1 0 3 1 5 6 7 8 0 0 9 10 11 0 0 0 0 0 0 0 81 255 2 2 49 12 1 0 0
 0 0 13 0 70 11 CI9 list_type0 0 1 uI10 notransmit0 0 1 lCCCDCCDI12 finger_index
0 0 1 dI12 finger_block1012 0 CZ3 0 4 T1 0 0 2 20 1 14 14 13 255 5 55 0 1 0 15 0
 0 9 15 50 255 6 3 0 15 0 0 0 +.006 -113134139737618e-33 0 -1 0 0 0 0 1 31 255 7
 28 0 10 16 0 0 -.006 .002751 .02324639573622195 -1 0 0 0 0 1 .001625 29 255 8 4
6 0 11 17 0 .006 1000000000001604e-21 .0216586824959505 19 8 CCCCCCCA5 owner12 0
 Z9 54 0 1 0 0 5 V0 16 255 10 26 0 ?18 0 19 7 0 0 1 18 255 11 44 0 20 0 21 8 ?1
 17 255 20 0 0 0 0 11 22 23 0 24 -18 21 41 0 25 11 26 17 ?1 17 25 0 27 24 28 21
 29 30 0 31 +18 26 38 0 28 21 32 33 ?1 29 17 43 0 21 33 8 .006 .002751 .02007096
9255679 29 33 40 0 26 34 17 .006 .005501 .0216586824959505 29 34 37 0 32 35 33 .
006 .005501 .02483410897649345 18 32 35 0 36 26 37 34 ?1 29 35 34 0 37 38 34 .00
6 .002751 .0264218222167649 18 37 32 0 39 32 40 35 ?1 29 38 31 0 40 0 35 .006 10
00000000001604e-21 .02483410897649345 18 40 29 0 22 37 0 38 ?1 17 22 0 27 39 24
 40 20 23 0 41 +15 255 27 6 0 22 15 42 17 39 0 27 36 22 37 41 43 0 44 +17 24 0 2
7 22 25 11 31 19 0 0 +16 23 8 0 ?22 43 0 45 0 0 1 17 41 0 0 0 0 40 39 43 0 0 -16
 43 11 0 ?39 46 23 47 0 0 1 16 46 14 0 ?36 48 43 49 0 0 1 30 255 47 13 0 43 45 4
9 0 +.006 1000000000001604e-21 .02483410897649345 0 .866025403784439 .5 30 45 10
 0 23 0 47 0 +.006 1000000000001604e-21 .0216586824959505 0 0 1 30 49 16 0 46 47
 50 0 +.006 .002751 .0264218222167649 0 .866025403784439 -.5 30 50 19 0 48 49 51
 0 +.006 .005501 .02483410897649345 0 0 -1 16 48 17 0 ?28 30 46 50 0 0 1 30 51 2
2 0 30 50 16 0 +.006 .005501 .0216586824959505 0 -.866025403784438 -.5 16 30 20
 0 ?25 19 48 51 0 0 1 30 16 25 0 19 51 7 0 +.006 .002751 .020070969255679 0 -.86
6025403784439 .5 16 19 23 0 ?24 10 30 16 0 0 1 17 28 0 27 25 36 26 52 48 0 29 +1
7 36 0 27 28 39 32 44 46 0 52 +17 52 0 0 0 0 32 28 48 0 0 -17 29 0 0 0 0 26 25 3
0 0 0 -17 44 0 0 0 0 37 36 46 0 0 -17 31 0 0 0 0 21 24 19 0 0 -14 255 15 1 53 ?0
 0 27 5 6 +0 0 0 0 5 15 42 7 0 18 15 0 17 18 0 42 18 18 0 54 10 0 0 +17 54 0 0 0
 0 0 18 10 0 0 -81 1 53 58 55 15 0 0 0 0 56 80 255 1 55 57 58 9000 1 1 1 1 1 1 1
 1 0 FFFFTFTFFFFFFF1 82 255 1 56 -1757149596 79 255 14 58 SWEntUnchanged74 4 CI1
6 index_map_offset0 0 1 dCCZ20 14 2 0 0 2 53 0 0 0 0 0 0 0 0 0 0 0 0 0 0 0 0 0 0
 80 2 12 59 60 8004 0 0 0 0 3 5 0 0 0 FFTFFFFFFFFFFF2 3 83 255 1 13 1 79 16 60 S
DL/TYSA_DENSITY1 0 
